<?xml version="1.0" standalone="no"?>
<!DOCTYPE svg PUBLIC "-//W3C//DTD SVG 20010904//EN"
 "http://www.w3.org/TR/2001/REC-SVG-20010904/DTD/svg10.dtd">
<svg version="1.0" xmlns="http://www.w3.org/2000/svg"
 width="400.000000pt" height="400.000000pt" viewBox="0 0 400.000000 400.000000"
 preserveAspectRatio="xMidYMid meet">

<g transform="translate(0.000000,400.000000) scale(0.100000,-0.100000)"
fill="#000000" stroke="none">
<path d="M1290 3137 c-54 -51 -238 -220 -334 -308 l-49 -44 6 -175 c20 -563
183 -1033 477 -1374 50 -58 192 -186 207 -186 6 0 13 -3 15 -8 9 -22 213 -142
242 -142 9 0 16 -4 16 -9 0 -4 25 -16 56 -26 66 -21 123 -17 186 13 23 11 59
28 78 36 19 9 58 29 85 45 28 17 57 33 65 37 8 4 17 11 20 14 3 4 23 20 45 36
76 55 216 190 264 254 14 19 28 37 31 40 3 3 26 37 49 75 24 39 47 72 50 75
11 9 101 199 101 213 0 7 4 17 9 23 13 13 59 144 83 234 50 189 50 188 82 435
19 147 25 393 9 403 -7 4 -63 55 -125 113 -225 210 -298 275 -308 272 -4 -1
-32 -17 -61 -34 -88 -52 -239 -125 -314 -152 -106 -37 -198 -50 -316 -45 -161
8 -321 68 -562 210 -26 15 -49 28 -50 28 -1 0 -27 -24 -57 -53z m224 -142
c193 -95 294 -125 447 -132 130 -6 208 4 326 43 85 29 245 102 306 141 21 13
45 23 52 21 8 -2 69 -55 137 -118 68 -63 143 -134 168 -157 l45 -42 -95 -44
c-506 -235 -896 -290 -1300 -183 -210 55 -585 199 -585 225 0 5 41 47 90 93
50 46 126 116 170 156 43 39 81 72 84 72 2 0 72 -34 155 -75z"/>
<path d="M2625 2930 c-7 -11 12 -51 29 -62 6 -4 7 -10 3 -14 -4 -4 -25 2 -46
14 -38 22 -72 28 -84 16 -4 -4 2 -23 12 -43 10 -20 26 -53 35 -74 11 -27 22
-37 34 -35 17 4 18 11 6 61 l-7 28 37 -20 c40 -23 71 -27 81 -10 7 10 -12 69
-26 79 -3 3 -14 20 -23 38 -16 31 -39 42 -51 22z"/>
<path d="M1303 2902 c-22 -17 -43 -60 -43 -88 0 -9 13 -29 29 -45 30 -30 80
-39 110 -20 25 16 6 36 -34 36 -49 0 -66 24 -45 63 20 34 61 37 75 5 14 -32
45 -30 45 2 0 18 -10 31 -32 45 -40 24 -76 25 -105 2z"/>
<path d="M2404 2836 c-35 -16 -44 -32 -44 -82 0 -24 8 -43 26 -61 22 -22 32
-25 72 -20 57 6 82 33 82 89 0 73 -61 106 -136 74z m82 -51 c14 -21 15 -31 5
-51 -9 -21 -17 -25 -44 -22 -28 3 -32 7 -35 36 -5 47 3 62 32 62 16 0 32 -9
42 -25z"/>
<path d="M1580 2813 c0 -4 -23 -32 -50 -62 -28 -30 -50 -58 -50 -62 0 -15 34
-19 49 -5 23 21 70 9 81 -20 5 -13 11 -24 14 -24 2 0 12 -3 22 -7 15 -5 16 0
11 48 -13 115 -20 134 -50 137 -15 2 -27 0 -27 -5z m25 -83 c-5 -8 -11 -8 -17
-2 -6 6 -7 16 -3 22 5 8 11 8 17 2 6 -6 7 -16 3 -22z"/>
<path d="M2213 2730 c13 -120 13 -120 107 -98 37 8 50 16 48 27 -4 17 -14 18
-64 7 -27 -6 -32 -4 -38 16 -3 13 -6 37 -6 54 0 32 -15 54 -38 54 -12 0 -14
-12 -9 -60z"/>
<path d="M2058 2764 c-81 -42 -54 -164 36 -164 78 0 118 48 96 114 -6 19 -17
40 -25 46 -22 18 -77 20 -107 4z m76 -40 c34 -33 16 -84 -29 -84 -34 0 -45 13
-45 54 0 43 44 61 74 30z"/>
<path d="M1855 2745 c-30 -31 -35 -94 -8 -120 50 -50 143 -34 143 24 0 16 -31
13 -50 -4 -9 -8 -25 -12 -38 -8 -18 4 -22 13 -22 44 0 47 26 67 56 44 42 -32
74 -6 36 28 -29 26 -86 22 -117 -8z"/>
<path d="M1426 2724 c-8 -20 -7 -21 19 -26 14 -2 20 3 20 17 0 25 -30 32 -39
9z"/>
<path d="M1682 2643 c2 -10 12 -18 23 -18 11 0 21 8 23 18 3 13 -3 17 -23 17
-20 0 -26 -4 -23 -17z"/>
</g>
</svg>
